<mxfile host="app.diagrams.net" modified="2020-09-24T02:29:21.494Z" agent="5.0 (Windows NT 10.0; Win64; x64) AppleWebKit/537.36 (KHTML, like Gecko) Chrome/85.0.4183.121 Safari/537.36" etag="huCMOB6FSHTeI68n9vmD" version="13.7.3" type="github">
  <diagram id="7HGqWyUw-NUKtqw8hbtW" name="Page-1">
    <mxGraphModel dx="1038" dy="580" grid="1" gridSize="10" guides="1" tooltips="1" connect="1" arrows="1" fold="1" page="1" pageScale="1" pageWidth="850" pageHeight="1100" math="0" shadow="0">
      <root>
        <mxCell id="0" />
        <mxCell id="1" parent="0" />
        <mxCell id="pEmnw5MB7O9ldLBmpmIz-14" value="" style="edgeStyle=entityRelationEdgeStyle;fontSize=12;html=1;endArrow=ERzeroToOne;endFill=1;" edge="1" parent="1" source="pEmnw5MB7O9ldLBmpmIz-11" target="pEmnw5MB7O9ldLBmpmIz-9">
          <mxGeometry width="100" height="100" relative="1" as="geometry">
            <mxPoint x="470" y="410" as="sourcePoint" />
            <mxPoint x="570" y="310" as="targetPoint" />
          </mxGeometry>
        </mxCell>
        <mxCell id="pEmnw5MB7O9ldLBmpmIz-9" value="Artifacts" style="swimlane;childLayout=stackLayout;horizontal=1;startSize=30;horizontalStack=0;rounded=1;fontSize=14;fontStyle=0;strokeWidth=2;resizeParent=0;resizeLast=1;shadow=0;dashed=0;align=center;" vertex="1" parent="1">
          <mxGeometry x="200" y="110" width="160" height="120" as="geometry" />
        </mxCell>
        <mxCell id="pEmnw5MB7O9ldLBmpmIz-15" value="ArtifactParameterItems" style="swimlane;childLayout=stackLayout;horizontal=1;startSize=30;horizontalStack=0;rounded=1;fontSize=14;fontStyle=0;strokeWidth=2;resizeParent=0;resizeLast=1;shadow=0;dashed=0;align=center;" vertex="1" parent="1">
          <mxGeometry x="780" y="110" width="180" height="120" as="geometry" />
        </mxCell>
        <mxCell id="pEmnw5MB7O9ldLBmpmIz-16" value="+Name&#xa;+DefaultValue&#xa;" style="align=left;strokeColor=none;fillColor=none;spacingLeft=4;fontSize=12;verticalAlign=top;resizable=0;rotatable=0;part=1;" vertex="1" parent="pEmnw5MB7O9ldLBmpmIz-15">
          <mxGeometry y="30" width="180" height="90" as="geometry" />
        </mxCell>
        <mxCell id="pEmnw5MB7O9ldLBmpmIz-17" value="" style="edgeStyle=entityRelationEdgeStyle;fontSize=12;html=1;endArrow=ERmany;" edge="1" parent="1" source="pEmnw5MB7O9ldLBmpmIz-11" target="pEmnw5MB7O9ldLBmpmIz-15">
          <mxGeometry width="100" height="100" relative="1" as="geometry">
            <mxPoint x="740" y="400" as="sourcePoint" />
            <mxPoint x="840" y="300" as="targetPoint" />
          </mxGeometry>
        </mxCell>
        <mxCell id="pEmnw5MB7O9ldLBmpmIz-11" value="ArtifactParameters" style="swimlane;childLayout=stackLayout;horizontal=1;startSize=30;horizontalStack=0;rounded=1;fontSize=14;fontStyle=0;strokeWidth=2;resizeParent=0;resizeLast=1;shadow=0;dashed=0;align=center;" vertex="1" parent="1">
          <mxGeometry x="490" y="110" width="160" height="120" as="geometry" />
        </mxCell>
        <mxCell id="pEmnw5MB7O9ldLBmpmIz-12" value="+Name&#xa;&#xa;" style="align=left;strokeColor=none;fillColor=none;spacingLeft=4;fontSize=12;verticalAlign=top;resizable=0;rotatable=0;part=1;" vertex="1" parent="pEmnw5MB7O9ldLBmpmIz-11">
          <mxGeometry y="30" width="160" height="90" as="geometry" />
        </mxCell>
      </root>
    </mxGraphModel>
  </diagram>
</mxfile>
